<?xml version="1.0" encoding="utf-8"?>
<!-- Generator: Adobe Illustrator 28.0.0, SVG Export Plug-In . SVG Version: 6.00 Build 0)  -->
<svg version="1.1" id="Layer_1" xmlns="http://www.w3.org/2000/svg" xmlns:xlink="http://www.w3.org/1999/xlink" x="0px" y="0px"
	 viewBox="0 0 3014.59 2200" style="enable-background:new 0 0 3014.59 2200;" xml:space="preserve">
<style type="text/css">
	.st0{fill:#F8F8F9;}
</style>
<path class="st0" d="M522.12,1825.13c14.4,27.68,24.73,56.85,32.85,87.11H533.2c-7.75-29.9-19.93-59.06-36.17-87.11
	c-10.34-17.72-22.52-35.06-36.17-51.31c-1.47-2.22-3.32-4.06-5.17-5.91v-30.27c8.49,7.38,16.24,14.03,22.52,21.78
	C495.92,1779.73,510.31,1801.88,522.12,1825.13z M681.21,1721.78c-48.73-70.13-116.27-117.75-206.71-121.07
	c-6.28-0.37-12.55-0.37-18.82,0.37v24.36c43.56-5.17,87.48,6.64,131.41,33.59c43.19,26.58,73.83,64.96,97.82,108.52
	c10.34,17.72,18.82,36.54,28.79,57.58c3.69,7.75,7.38,15.87,11.81,24.36c-16.61-7.75-21.04-16.98-26.95-24.36
	c0-0.37-0.37-0.37-0.37-0.74c-62.38-79.73-144.69-118.85-242.51-121.81l0,21.04c12.18-1.11,22.88,0.74,33.22,2.58
	c79.36,13.29,139.53,47.25,183.45,98.92c21.41,25.1,38.76,54.26,52.78,87.11h41.71c-8.12-29.53-17.72-59.06-29.53-87.11
	C722.18,1788.95,703.73,1754.26,681.21,1721.78z M1034.46,1676.38c-40.6-55-87.85-104.09-145.8-142.11
	c-50.2-33.22-95.6-74.19-148.38-104.09c-46.51-26.21-95.6-43.19-148.39-49.83c-46.51-5.91-91.91-6.28-136.2-1.11l0,19.19
	c83.05-10.34,164.62-0.74,243.25,32.48c5.17,2.22,10.34,4.06,15.13,7.01c82.31,50.2,163.89,101.88,232.91,169.42
	c66.44,65.33,118.86,138.05,157.98,217.78c14.03,28.05,26.21,57.21,36.91,87.11h19.56c-10.34-29.9-22.52-59.06-36.54-87.11
	C1099.79,1773.08,1069.15,1723.62,1034.46,1676.38z M2384.68,1807.41c-0.37,0.74-0.74,1.84-1.11,2.58
	c-16.24,36.17-22.51,70.5-21.04,102.24h20.3c-1.48-34.33,7.01-70.5,25.46-104.83c4.8-8.49,9.97-16.98,15.88-25.47
	c1.11,9.6,0.37,17.72-1.11,25.47c-1.11,6.27-2.96,12.55-3.69,18.45c-4.8,29.9-5.54,59.06-1.1,86.37h21.41
	c-8.12-34.33-5.54-69.39,5.9-104.83c3.32-10.71,7.75-21.78,12.92-32.48c18.08-37.65,39.49-42.82,76.41-23.62
	c8.86,4.8,16.98,9.97,23.99,16.61v-30.27c-4.07-3.69-8.49-7.38-12.92-11.44c4.43-1.48,8.86-2.22,12.92-2.58v-21.04
	c-4.8,0-9.97-0.37-14.77,0C2470.32,1702.95,2415.32,1740.6,2384.68,1807.41z M2313.08,1807.41
	c-15.13,32.11-26.21,67.18-33.22,104.83h17.34c8.49-38.02,21.41-72.72,38.39-104.83c30.64-58.32,75.67-107.05,133.99-146.91
	c29.9-19.93,59.43-31.75,89.33-35.07v-24.36c-16.24,1.11-32.11,5.17-46.88,12.55C2419.75,1659.03,2352.57,1723.25,2313.08,1807.41z
	 M2191.63,1611.78c-33.95,64.59-38.75,129.56-23.25,195.63c2.95,12.55,6.64,25.47,11.07,38.39c7.76,22.52,16.25,44.66,25.47,66.44
	h17.35c-16.98-33.59-31.38-68.28-39.87-104.83c-5.54-22.15-8.86-44.67-9.6-68.66c-1.11-42.08,9.97-82.31,30.27-118.85
	c73.82-132.88,194.16-196,339.22-218.89c5.54-1.11,11.08-1.84,16.61-2.58v-19.19c-74.2,8.12-145.07,31.75-212.99,69.77
	C2277.64,1487.39,2227.81,1542.39,2191.63,1611.78z M2283.91,430.24c29.16,39.5,50.93,83.79,86.74,118.12
	c26.58,25.47,52.79,51.31,80.84,74.93c8.86,7.01,17.72,14.03,26.94,20.67c25.47,18.46,52.04,33.96,80.47,43.92v-19.93
	c-29.16-12.55-56.84-27.68-82.32-44.66c-47.25-31.74-88.95-70.87-124.39-117.75c-1.84-2.58-2.58-5.9-3.69-8.49
	c27.32,23.62,55.74,43.56,84.53,62.75c39.5,26.58,81.21,46.88,125.87,60.54v-14.03c-4.8-1.48-9.23-2.95-13.66-4.8
	c-69.03-25.47-131.41-62.38-181.6-117.38c-17.35-18.83-33.22-39.13-45.04-62.01c-11.07-20.67-19.19-41.71-23.25-63.49
	c-3.69-22.15-3.69-44.67,1.48-69.03c0-0.37,0.37-1.11,0.37-1.85h-17.34c-1.48,8.12-2.59,16.61-4.07,25.1
	c-1.84,14.76-1.47,30.27-0.74,45.77c0.37,8.12,1.11,16.24,1.48,24.73c-4.8-8.49-9.97-16.61-14.77-24.73
	c-14.02-23.63-27.31-46.88-39.49-70.87h-17.35c9.97,23.99,21.41,47.62,33.96,70.87C2252.17,382.99,2267.3,406.98,2283.91,430.24z
	 M2463.67,383.73c26.95,31.37,58.32,47.25,95.23,45.4l0-21.41c-34.7,1.11-64.96-15.5-88.22-49.09c-0.74-1.48-1.84-2.95-2.95-4.43
	c-13.66-21.78-22.89-43.92-28.05-66.44h-21.41c4.42,24.73,12.92,48.36,26.94,70.87C2450.39,367.12,2456.66,375.61,2463.67,383.73z
	 M2503.16,479.7c15.51,7.01,35.44,9.97,55.74,7.38v-21.04c-18.83,2.95-37.28,0.74-55.74-7.75c-49.09-23.99-83.79-59.06-102.98-99.66
	c-10.7-22.52-16.61-46.51-17.34-70.87h-20.3c1.11,25.1,7.01,48.72,16.61,70.87C2403.14,412.89,2450.02,455.34,2503.16,479.7z
	 M540.95,332.06c1.11,32.48-2.95,45.03-19.93,55.74c-3.69,2.21-8.49,4.43-13.66,7.01c-18.09,8.12-35.44,12.18-51.68,12.92v21.41
	c11.08-0.37,22.15-2.22,33.96-5.54c10.34-3.32,20.67-7.38,36.54-13.29c-5.91,24.73-18.82,36.17-35.07,44.29
	c-11.81,5.54-23.62,9.6-35.44,11.44l0,21.04c40.23-4.43,82.31-28.42,98.55-76.04c2.58-7.75,4.8-15.5,6.27-23.25
	c5.17-23.25,6.65-46.14,1.85-69.03c-2.21-10.7-4.8-21.04-7.38-31.01l-21.78,0C536.89,302.53,539.47,317.29,540.95,332.06z
	 M753.93,387.79c4.43,32.85,3.69,66.07-4.06,99.66c-0.37,1.84-1.11,3.69-1.47,5.9c-16.98,65.34-60.91,101.88-124.76,118.49
	c-56.85,14.77-113.32,12.18-167.95-5.54v14.03c22.52,6.64,45.77,11.81,69.76,14.76c61.64,7.75,119.96-4.43,175.33-33.96
	c-11.08,17.35-38.39,40.6-61.27,50.57c-29.9,13.29-60.9,22.52-93.02,27.31c-26.58,4.06-53.52,4.43-79.36-6.27
	c-3.69-1.48-7.75-2.95-11.44-4.8v19.93c31.38,10.71,64.6,14.4,101.14,8.49c98.18-16.98,174.22-63.49,213.72-157.61
	c6.64-14.76,11.44-29.9,14.76-45.4c7.38-34.33,7.75-70.13,2.21-105.57v-0.37c-5.17-33.59-12.18-67.18-20.67-99.66l-41.71,0
	c6.28,14.03,11.44,28.79,16.24,44.3C746.91,350.51,751.34,368.97,753.93,387.79z M1170.29,387.79
	c-7.75-34.33-16.98-67.92-28.42-100.03l19.56,0c11.08,32.11,20.3,65.7,27.32,100.03c1.47,6.27,2.58,12.92,4.06,19.19
	c4.8,29.16,9.23,57.95,12.18,86.37c8.86,85.27,6.27,170.16-16.98,254.69c-0.37,1.47-1.11,2.95-1.48,4.43
	c-2.58,9.23-8.12,18.82-0.74,28.42c13.29-4.43,32.85-17.72,51.68-32.85c11.07-8.86,22.15-18.46,30.64-26.95
	c51.31-50.57,83.05-113.32,114.79-176.44c8.49-16.61,15.14-33.96,20.3-51.31c8.12-29.16,11.81-59.8,11.44-90.8
	c0-5.17-0.37-9.97-0.37-14.76c-1.11-33.96-4.06-67.18-9.6-100.03l20.67,0c2.58,13.29,4.8,27.68,8.12,45.77
	c5.91-16.98,7.75-31.75,8.12-45.77h19.56c0,33.22-2.95,66.81-8.49,100.03c-2.95,16.98-6.65,33.96-11.07,50.94
	c-4.8,18.46-10.34,36.54-14.76,54.63c-2.21,8.49-4.06,17.35-5.17,26.58c-13.29,87.48-48.35,162.41-98.92,228.11
	c-28.05,36.54-60.9,70.13-97.45,101.87c-35.8,31.01-78.25,51.31-121.07,70.87c-20.72,9.14-39.18,20.56-56.83,34.02
	c69.54,41.33,137.44,85.22,194.58,142.76c54.29-29.07,105.11-63.7,151.26-105.91c12.18-11.07,24.36-22.89,35.8-35.44
	c45.77-48.72,84.16-101.88,114.06-160.93c8.12-15.5,15.5-31.38,22.52-47.25c34.7-81.58,55-166.84,64.6-254.69
	c2.21-21.78,4.06-43.92,5.17-66.07c0.74-13.29,1.11-26.58,1.48-39.49c0.74-33.59-0.37-66.81-2.95-100.03h19.93
	c1.11,14.77,2.22,29.9,2.58,45.03c0.37,18.46,0.37,36.54,0,55c-1.11,35.43-4.06,70.5-8.49,105.57
	c-7.02,52.78-17.72,105.57-31.38,157.61c-8.86,33.59-19.56,65.7-32.85,97.08c-33.59,80.84-80.83,154.29-141.74,219.99
	c-7.75,8.49-15.5,16.24-23.62,23.62c-49.09,46.51-106.31,81.57-164.62,115.53c-0.51,0.29-1.01,0.58-1.52,0.87
	c22.96,23.87,45.57,48.03,67.6,72.66c35.53-15.24,70.26-33.01,104.08-53.6c60.9-36.91,114.43-82.31,159.83-135.46
	c12.55-14.77,24.36-29.9,35.8-45.77c35.44-49.83,59.06-107.78,78.25-166.47c3.32-10.33,6.28-21.04,9.23-31.37
	c13.66-52.42,19.56-105.94,22.52-160.2c1.85-31.38,1.48-63.12-1.85-94.5c-0.37-4.43-0.74-8.49-1.11-12.55
	c-4.06-31-8.86-62.01-14.4-93.01c-3.12-17.76-6.4-35.52-9.73-53.27c-4.16-15.59-7.9-31.17-11.31-46.76h2.21h16.24h1.84
	c5.84,23.09,10.9,46.77,15.22,71.14c1.45,4.72,2.9,9.79,4.35,14.86c27.32,90.07,72.71,170.9,122.55,249.52
	c2.58,4.43,5.54,9.23,8.49,13.66c50.2,78.25,105.94,151.34,172.01,216.67c5.17,4.8,10.34,9.97,15.5,14.76
	c15.94,15.06,32.17,29.73,48.59,44.15c7.63-4.38,15.34-8.65,23.15-12.79c-12.34-15.06-24.28-30.46-35.94-46.12
	c-15.5-21.04-30.63-42.08-45.77-63.49c-8.12-11.81-15.5-25.1-19.93-38.39c-15.51-44.66-35.8-86.74-57.21-128.45
	c-6.27-12.18-12.55-23.99-18.82-35.8c-3.69-7.38-9.23-14.77-4.06-28.79c11.44,20.3,21.04,36.54,29.16,53.15
	c2.22,3.69,4.06,7.75,5.91,11.44c25.47,51.31,49.83,102.98,76.04,153.92c13.66,27.31,29.53,52.41,47.25,76.41
	c10.33,14.23,21.3,27.93,32.8,41.21c14.84-7.62,30-14.82,45.45-21.65c32.34-14.14,64.96-27.43,98.05-39.15
	c-99.62-54.47-187.7-123.71-264.53-207.42c-1.11-1.11-2.21-2.22-3.32-3.32c-47.99-52.78-89.7-110.37-122.18-173.85
	c-15.14-29.53-27.69-59.8-38.02-90.8c-7.76-23.25-14.03-46.88-19.19-70.87h23.62c2.21,5.91,4.43,11.81,7.01,17.72
	c-0.74-5.91-1.47-11.81-2.21-17.72l21.04,0c2.22,23.62,5.54,47.25,11.44,70.87c2.21,7.38,4.06,14.76,6.64,22.15
	c17.72,52.04,41.34,100.03,73.83,145.43c25.1,33.96,51.31,66.81,79.73,97.08c40.6,43.56,85.64,81.95,137.68,113.69
	c38.76,23.99,74.94,52.41,119.59,66.07c-45.77-37.28-93.75-71.61-133.62-115.9c-19.19-21.04-37.65-42.45-56.11-63.86
	c-18.45-21.78-36.17-44.29-53.52-67.18c-35.81-47.99-65.71-98.93-84.16-155.4c-4.8-14.02-8.86-28.05-12.92-42.08
	c-6.65-23.63-12.18-47.25-16.61-70.87h19.56c4.43,23.62,9.6,47.25,15.88,70.87c0.74,2.58,1.47,5.17,2.21,7.75
	c25.47,87.48,70.87,163.52,129.56,232.54c7.02,8.12,13.66,16.24,20.67,24.36c46.51,53.52,95.23,105.2,152.81,147.65
	c19.19,14.35,38.88,27.72,59.09,40.07c30.54-8.1,61.6-14.5,93.36-18.66c39.13-4.8,78.25-8.12,117.38-9.23v19.19
	c-44.67,1.11-89.33,5.17-133.62,11.81c-18.33,2.64-36.46,6.08-54.42,10.18c18.91,10.64,38.27,20.43,58.11,29.31
	c41.34,18.46,84.52,33.22,129.93,43.19v20.67c-12.19-2.58-24.73-5.17-36.91-7.75c12.55,7.01,24.36,15.13,36.91,22.52l0,32.48
	c-35.81-12.92-71.24-26.95-105.94-44.29c-46.14-23.63-94.49-43.56-141-66.81c-5.53-2.58-10.69-5.53-16.22-8.11
	c-45.83,15.28-90.56,34.23-134.39,54.99c-5.98,2.88-11.9,5.83-17.76,8.85c25.35,27.68,52.98,53.52,81.98,78.26
	c29.83,25.12,61.85,46.48,95.78,64.53c26.24-12.06,53.78-22.01,82.88-29.46c20.67-5.54,41.71-8.86,62.01-14.76
	c30.64-8.49,61.64-15.5,92.65-21.04v30.64c-70.44,4.08-134.87,23.4-195.65,54.84c16.95,7.4,34.31,14.08,52.06,20.09
	c47.24,16.24,94.86,31.01,143.59,43.19v12.92c-60.91-16.24-120.71-35.06-179.76-56.47c-10.29-3.72-20.41-7.7-30.37-11.96
	c-6.62,3.67-13.19,7.46-19.73,11.41c8.92,5.09,17.99,9.96,27.22,14.58c47.69,23.85,96.36,44.95,146,63.07
	c18.81-1.2,37.7-1.93,56.65-2.17v18.83c-2.52,0.05-5.03,0.11-7.54,0.17c2.51,0.81,5.02,1.62,7.54,2.41v15.87
	c-16.69-5.23-33.22-10.88-49.61-16.85c-17.21,0.83-34.37,2.04-51.53,3.93c-117.01,11.81-228.85,39.5-331.47,98.93
	c-62.01,36.17-112.21,81.94-139.15,149.12c-26.94,67.18-40.6,136.94-40.6,209.66c0.37,52.78,0,105.57,5.54,158.35
	c0.74,5.17,1.48,10.7,2.21,15.87c3.69,29.9,8.12,59.43,13.66,88.96h-19.56c-7.02-34.7-12.19-69.76-15.51-104.83
	c-3.69-35.81-5.54-71.98-6.64-108.15c-1.11-53.15-1.85-105.94,10.33-158.35c-6.27,6.64-9.59,13.29-12.55,20.3
	c-31.38,80.1-48.36,162.04-51.3,246.2c-1.11,29.53-0.37,59.43,2.21,89.33c0.37,5.17,0.74,10.33,1.47,15.5h-21.04
	c-4.06-35.44-4.8-70.5-3.69-104.83c5.53-132.15,47.25-256.54,109.63-377.24c-93.38,82.31-142.48,238.08-131.77,377.24
	c2.58,36.54,9.6,72.35,21.04,104.83h-23.62c-7.01-32.11-11.44-65.33-14.02-98.55c0-2.21-0.37-4.06-0.37-6.27
	c-5.17-80.84-2.22-161.67,33.22-237.34c10.7-22.15,19.93-45.03,31.01-67.18c10.7-20.67,20.3-42.82,35.43-59.8
	c24.73-27.68,53.15-51.31,80.47-76.04c6.64-6.27,12.92-12.18,17.35-20.3c33.96-60.9,77.88-114.06,127.71-162.78
	c42.92-42.09,88.52-79.29,138.9-108.59c-33.99-22.27-66.41-46.97-97.55-74.12c-26.02-22.73-52.2-45.21-78.01-68.06
	c-78.24,47.61-144.15,109.53-197.72,186.18c-41.7,59.8-84.89,118.86-112.58,186.4c-40.6,97.08-75.3,195.63-89.7,301.2
	c-8.86,67.55-11.08,134.36-5.91,200.43c2,27.1,5.33,54.21,9.98,81.14c2.19,7.86,4.28,15.76,6.26,23.69h-1.84h-16.24h-2.21
	c-2.09-9.91-4.08-19.86-5.92-29.9c-5.94-19.38-12.95-38.38-20.29-57.22c-5.9-15.87-12.18-31.37-18.08-47.25
	c-1.85-4.8-3.69-10.71-10.71-11.81c-6.64,7.38-0.74,14.76,0.37,21.78c2.22,12.18,4.43,24.73,6.28,37.28
	c4.8,28.79,8.49,57.95,11.07,87.11h-19.93c-2.22-29.16-5.91-58.32-10.71-87.11c-8.49-49.46-21.04-98.18-38.02-146.54
	c-6.64-18.82-10.33-38.76-20.3-56.84c-43.19-78.99-95.97-150.6-155.4-217.78c-49.09-55.74-104.83-104.09-160.2-152.08
	c-8.16-7.07-16.38-14.04-24.66-20.91c-37.8,11.16-76.38,19.97-115.73,26.66c5.71,4.83,11.41,9.68,17.1,14.55
	c115.53,100.03,214.46,212.98,275.36,354.72c27.68,63.86,45.77,129.93,54.26,198.21c2.95,24.73,4.8,50.2,5.17,75.67
	c0.37,3.69,0.37,7.75,0.37,11.44h-19.56c0.37-10.34-0.37-20.3-0.74-30.27c-1.48-19.19-2.95-38.02-5.54-56.85
	c-18.08-137.31-71.24-260.96-158.72-371.7c-56.23-71.16-118.99-135.13-187.51-192.62c-15.88,2.4-31.87,4.47-47.99,6.21
	c-40.34,4.32-80.76,6.96-121.14,7.82c19.73,9.54,39.3,19.51,58.76,29.83c66.44,34.7,126.98,79.73,183.45,128.82
	c36.17,31.75,72.72,63.86,100.03,103.72c61.27,89.69,111.47,184.56,142.48,287.91c7.01,23.26,12.92,46.88,17.72,71.24
	c1.11,5.17,2.22,10.7,2.95,15.87h-20.67c-4.8-29.53-11.07-58.69-19.56-87.11c-8.86-29.9-19.56-59.06-32.85-87.85
	c-18.46-40.97-38.02-80.84-60.91-119.59c-29.9-50.94-63.49-100.03-107.41-141c-56.47-52.78-118.49-98.18-184.19-139.53
	c-38.33-23.99-78.72-44.06-120.09-62.07c-28.93-0.25-57.82-1.43-86.61-3.63c-102.61-8.12-203.38-29.53-302.67-57.21
	c-11.81-2.95-23.25-6.65-34.7-9.97l0-15.87c51.68,16.61,104.46,30.27,158.35,40.6c74.08,14.62,148.37,24.5,222.98,28.29
	c-101.03-40.17-204.65-70.37-314.89-71.47c-22.15,0-44.29,0-66.44,0v-18.83c28.09-0.62,56.17,0.07,84.47,1.82
	c-1.09-0.24-2.18-0.47-3.27-0.71c-27.31-5.91-54.26-12.55-81.21-19.57v-12.92c0.37,0,0.74,0.37,1.11,0.37
	c148.75,38.02,298.25,66.44,453.65,56.84c26.61-1.59,52.97-4.34,79.03-8.35c-15.76-11.03-31.77-21.78-48.02-32.25
	c-139.53-90.06-292.71-136.2-459.92-135.46c-8.86,0-17.35,0.37-25.84,0.74l0-30.64c15.18-2.65,30.4-4.86,45.67-6.65
	c-15.41-5.04-30.55-10.11-45.67-15.49v-32.48c11.08,6.64,22.52,12.92,35.07,17.72c25.9,10.45,52.14,18.78,78.71,25.18
	c26.26-0.84,52.67-0.4,79.27,1.4c40.13,2.61,80.07,7.1,119.5,13.98c77.49-4.57,152.6-19.21,226.38-42.32
	c-16.79-9.47-33.73-18.6-50.83-27.35c-160.98,39.92-323.63,30.17-488.1-3.38V896.8c1.84,0.74,3.69,1.11,5.17,1.48
	c22.89,4.8,45.03,14.4,68.29,16.98c103.72,9.97,207.07,20.67,311.16,8.12c27.3-3.26,54.19-7.93,80.7-13.89
	c-92.45-45.01-189.84-78.68-294.79-96.1c-56.84-9.23-113.69-12.55-170.53-11.07l0-19.19c6.28,0,12.55,0,18.82-0.37h16.61
	c93.76,1.11,186.77,14.76,278.31,44.66c63.62,20.63,127.23,41.59,185.77,73.61c48.52-13.12,95.79-30.6,142-51.83
	c28.42-12.92,49.09-33.59,59.43-64.6c4.06-12.18,8.12-24.36,12.18-36.54c3.69-12.18,7.01-24.73,9.96-37.28
	c15.5-72.35,16.24-145.06,8.49-217.41c-2.22-19.56-4.8-39.12-8.12-59.06C1176.57,418.8,1173.61,402.92,1170.29,387.79z
	 M2334.76,833.51c-7.85,2.21-15.66,4.53-23.45,6.97c8.79,4.52,17.62,8.9,26.49,13.14c46.51,22.15,93.76,40.97,141,59.8
	c-8.86-9.97-53.15-34.33-103.35-59.8C2362.16,846.89,2348.41,840.1,2334.76,833.51z M2289.31,828.8c7.02-2.37,14.06-4.65,21.13-6.86
	c-42.37-19.87-80.45-36.12-96.65-40.3C2238.34,799.15,2263.6,814.69,2289.31,828.8z M825.14,1002.29
	c12.47,3.01,24.88,6.28,37.2,9.86c28.32-3.19,55.89-10.12,82.79-20.49c16.24-6.27,32.48-13.66,47.98-22.52
	c-33.59,6.28-66.07,16.61-99.29,22.52c-5.17,1.11-10.34,1.84-15.5,2.58C860.61,996.88,842.89,999.76,825.14,1002.29z M566.05,999.05
	c8.76,1.82,17.52,2.93,26.28,4.02c-11.58-2.15-23.12-4.49-34.61-7.13C560.45,997.06,562.92,998.7,566.05,999.05z M1012.65,1180.56
	c36.09-6.67,71.53-15.91,106.13-28.08c-32.84-21.25-67.06-40.38-103.15-56.73c-28.79-12.92-57.58-24.73-86.37-36.91
	c-27.55-11.64-55.44-21.21-83.62-29.09c-10.68,0.15-21.45-0.13-32.28-0.81c-43.56-2.59-87.11-4.06-130.3-11.07
	c-18.11-2.93-36.22-5.64-54.27-8.54c100.48,18.89,196.26,51.09,284.96,104.51C948.1,1134.42,980.87,1156.86,1012.65,1180.56z
	 M1073.02,1247.56c-21.85-17.78-44.27-34.93-67.23-51.46c-27.45,4.82-55.31,8.37-83.55,10.76c-63.85,5.17-126.98-0.74-190.46-5.91
	c-0.87-0.07-1.73-0.16-2.6-0.24c53.62,15.22,105.69,35.1,156.68,58.16c50.47,0.72,101.1-1.46,151.91-6.99
	C1049.58,1250.62,1061.33,1249.17,1073.02,1247.56z M1210.31,1219.25c-24.72-19.97-50.03-38.96-76.2-56.64
	c-34.69,12.33-70.17,22-106.39,29.34c22.25,17.03,44.06,34.63,65.61,52.61C1133.03,1238.33,1172.06,1230,1210.31,1219.25z
	 M1501.39,1485.54c-5.17-25.84-18.09-47.62-31-69.4c-43.93-75.67-98.56-143.22-156.14-209.29c-1.6-1.83-3.19-3.66-4.79-5.48
	c-21.11,8.56-42.48,16.31-64.12,23.25c76.71,66.56,152.63,133.5,217.67,212.2C1476.29,1453.06,1488.84,1469.3,1501.39,1485.54z
	 M2315.97,1099.64c-5.54,3.53-11.06,7.15-16.55,10.88c-56.1,37.65-102.62,86.01-153.92,129.19c-5.54,4.43-13.29,9.23-10.33,19.93
	c12.18,3.32,20.67-5.54,30.64-9.97c16.24-7.01,31.74-16.24,48.72-22.15c83.27-29.04,167.96-47.49,254.08-55.69
	c-30.82-12.38-61.21-25.81-91.3-39.91C2356.28,1121.95,2335.86,1111.17,2315.97,1099.64z M2113.42,925.84
	c34.26,29.55,69.22,58.14,104.05,86.86c23.54,19.52,47.75,38.03,73.02,54.91c5.11-2.77,10.26-5.47,15.47-8.07
	c-25.53-13.69-49.87-29.47-72.99-47.58c-36.88-29.32-69.37-62.27-99.31-97.4C2126.84,918.23,2120.08,921.98,2113.42,925.84z
	 M1330.34,1192.6c70.66,80.21,134.79,165.61,184.34,262.3c28.42,55,52.05,111.47,75.3,168.32c10.71,25.47,25.1,49.83,38.39,74.56
	c17.31,31.78,32.42,63.99,45.54,97.14c-3.47-50.05-1.38-99.83,1.34-149.93c2.21-38.39,10.33-74.56,18.09-111.11
	c37.28-174.22,113.69-329.62,224.05-468.41c47.63-59.85,104.57-107.4,168.52-145.8c-23.88-21.44-47.35-43.29-69.96-66.07
	c-12.19-12.18-23.99-24.73-35.43-37.28c-54.26-60.16-101.51-125.13-144.7-193.05c-4.8-7.75-9.59-15.13-14.39-22.88
	c-30.99-50.14-60.99-100.94-82.88-155.8c1.67,16.06,3.08,32.33,4.25,48.76c2.58,35.8,4.06,73.08,4.06,111.47
	c2.58,44.29-4.42,93.02-18.46,143.22c-17.72,63.12-47.62,128.82-86,191.57c-11.44,18.09-23.62,35.81-36.54,52.05
	c-47.25,59.43-106.31,107.78-172.38,147.65C1399.86,1159.6,1365.47,1177.29,1330.34,1192.6z M1232.71,1118.95
	c-24.43,13.14-49.33,24.65-74.66,34.67c19.29,13.66,38.05,28.28,56.17,44.01c5.87,5.1,11.75,10.19,17.62,15.29
	c22.63-6.95,44.99-14.77,67.04-23.55C1277.41,1165.15,1255.59,1141.49,1232.71,1118.95z M1140.39,1040.76
	c-36.29-25.45-73.08-49.59-110.56-72.06c-11.25,8.66-22.8,16.47-34.87,22.97c-29.47,16.7-60.81,27.33-93.38,33.01
	c9.53,3.32,19,6.82,28.41,10.54c74.62,29.36,146.87,63.46,213.18,108.14c26.76-10.73,52.93-22.41,78.39-35.21
	C1196.23,1083.99,1169.48,1061.28,1140.39,1040.76z M1113.82,858.78c-46.09,22.57-92.32,40.24-138.69,53.65
	c15.36,9.03,30.79,17.99,46.19,27.01c3.03-1.04,6.05-2.08,9.08-3.15C1068.05,923.01,1092.04,896.8,1113.82,858.78z M1172.87,819.66
	c-25.47,17.35-38.02,44.66-53.52,72.35c49.46-13.65,123.65-74.56,179.39-143.95c38.39-48.36,67.92-100.77,73.46-143.96
	c-5.17,9.6-10.33,19.19-16.24,28.79c-22.52,37.28-46.51,73.46-79.73,102.25c-4.8,4.43-9.6,8.86-14.4,12.92
	C1233.41,773.15,1204.62,798.25,1172.87,819.66z"/>
</svg>
